<?xml version="1.0" encoding="utf-8"?>
<!-- Generator: Adobe Illustrator 27.0.0, SVG Export Plug-In . SVG Version: 6.00 Build 0)  -->
<svg version="1.1" id="Layer_1" xmlns="http://www.w3.org/2000/svg" xmlns:xlink="http://www.w3.org/1999/xlink" x="0px" y="0px"
	 viewBox="0 0 168 36.7" style="enable-background:new 0 0 168 36.7;" xml:space="preserve">
<style type="text/css">
	.st0{fill-rule:evenodd;clip-rule:evenodd;fill:#FFFFFF;}
	
		.st1{clip-path:url(#SVGID_00000175295697918283256360000010710108480611961532_);fill-rule:evenodd;clip-rule:evenodd;fill:#F3774E;}
	
		.st2{clip-path:url(#SVGID_00000175295697918283256360000010710108480611961532_);fill-rule:evenodd;clip-rule:evenodd;fill:#78ACAD;}
	
		.st3{clip-path:url(#SVGID_00000175295697918283256360000010710108480611961532_);fill-rule:evenodd;clip-rule:evenodd;fill:#F8AD8D;}
	
		.st4{clip-path:url(#SVGID_00000175295697918283256360000010710108480611961532_);fill-rule:evenodd;clip-rule:evenodd;fill:#F89E2D;}
	.st5{fill:none;stroke:#231F20;stroke-width:0.216;stroke-miterlimit:2.6131;}
	.st6{fill:#231F20;}
	.st7{fill-rule:evenodd;clip-rule:evenodd;fill:#231F20;}
</style>
<path class="st0" d="M-71.4-1.5h25.9c1.9,0,3.4,1.5,3.4,3.4v25.9c0,1.9-1.5,3.4-3.4,3.4h-25.9c-1.9,0-3.4-1.5-3.4-3.4V1.9
	C-74.8,0-73.3-1.5-71.4-1.5"/>
<g>
	<defs>
		<path id="SVGID_1_" d="M-71.4-1.5h25.9c1.9,0,3.4,1.5,3.4,3.4v25.9c0,1.9-1.5,3.4-3.4,3.4h-25.9c-1.9,0-3.4-1.5-3.4-3.4V1.9
			C-74.8,0-73.3-1.5-71.4-1.5"/>
	</defs>
	<clipPath id="SVGID_00000034079162540639698250000005858468400635656596_">
		<use xlink:href="#SVGID_1_"  style="overflow:visible;"/>
	</clipPath>
	
		<path style="clip-path:url(#SVGID_00000034079162540639698250000005858468400635656596_);fill-rule:evenodd;clip-rule:evenodd;fill:#F3774E;" d="
		M-79.6,10.4c0,0,3.6-4.7,7.3-2.2c3.7,2.4,4.5-1.7,7-3.5c2.5-1.8,8.7-1.4,7.8-3.8c-0.9-2.4,2.6-5.7-4.6-5.8C-69.4-5-77.9-9.7-79.3-4
		C-80.6,1.7-79.6,10.4-79.6,10.4"/>
	
		<path style="clip-path:url(#SVGID_00000034079162540639698250000005858468400635656596_);fill-rule:evenodd;clip-rule:evenodd;fill:#78ACAD;" d="
		M-65.1,33.9c0,0-2.9-5.7,1-9.1c3.9-3.4,6.4-3.4,8.8-1c2.4,2.3,5.7,2.1,5.7,4.8C-49.5,31.2-52.1,39.4-65.1,33.9"/>
	
		<path style="clip-path:url(#SVGID_00000034079162540639698250000005858468400635656596_);fill-rule:evenodd;clip-rule:evenodd;fill:#F8AD8D;" d="
		M-43.5-4.6c0,0,2,5.7-1,8.2c-3,2.6-2.9,5.6-1.4,6.5c1.5,0.9-1.7,1.3,0.2,5.6c2,4.3,7,3.8,6,8.6c-0.9,4.8,6.1-13.9,6.1-14.9
		C-33.5,8.5-43.5-4.6-43.5-4.6"/>
	
		<path style="clip-path:url(#SVGID_00000034079162540639698250000005858468400635656596_);fill-rule:evenodd;clip-rule:evenodd;fill:#F89E2D;" d="
		M-86.7,29.7c0,0-2.9-5.7,1-9.1c3.9-3.4,6.4-3.4,8.8-1c2.4,2.3,5.7,2.1,5.7,4.8S-73.7,35.1-86.7,29.7"/>
</g>
<path class="st5" d="M-71.4-1.5h25.9c1.9,0,3.4,1.5,3.4,3.4v25.9c0,1.9-1.5,3.4-3.4,3.4h-25.9c-1.9,0-3.4-1.5-3.4-3.4V1.9
	C-74.8,0-73.3-1.5-71.4-1.5z"/>
<g>
	<path class="st6" d="M106.3,21.9c-0.9-0.4-1.7-0.7-2.6-1c-1.4-0.4-2.8-0.8-4.2-1.1c-1.2-0.3-2.4-0.4-3.7-0.6
		c-1.5-0.2-3-0.4-4.5-0.5c-0.8-0.1-1.6,0-2.3,0c-0.9,0-1.8,0.1-2.7,0.1c-0.7,0-1.4,0.1-2.1,0.2c-0.8,0.1-1.5,0.1-2.3,0.2
		c-0.7,0.1-1.3,0.2-2,0.3c-0.6,0.1-1.3,0.1-1.9,0.2c-0.6,0.1-1.3,0.1-1.9,0.2c-0.8,0.1-1.6,0.3-2.3,0.4c-1.4,0.3-2.7,0.6-4.1,1
		c-1,0.3-1.9,0.6-2.9,0.9c-1,0.3-2.1,0.7-2.9,1.5c-0.1,0.1-0.2,0.1-0.3,0.2c0-0.2,0-0.3,0.1-0.4c0.7-0.9,1.4-1.7,2.4-2.5
		c1.8-1.4,3.8-2.5,5.9-3.2c1.2-0.4,2.5-0.8,3.8-1.1c1-0.2,2-0.4,3-0.6c0.9-0.1,1.9-0.2,2.8-0.3c0.2,0,0.4-0.1,0.4-0.3
		c0-0.2,0.1-0.5,0.3-0.7c0.1-0.2,0.1-0.5-0.1-0.6c-1.1-1-1.8-2.3-2.5-3.6c-0.7-1.4-1.4-2.8-1.7-4.3c-0.3-1-0.2-2.1,0.3-3.1
		C78.3,3.1,78.4,3,78.8,3c2,0.2,3.7,1,5.3,2.2c1.9,1.3,3.1,3.2,3.8,5.4c0.2,0.5,0.3,1,0.4,1.5c0,0.2,0.1,0.3,0.2,0.4
		c0,0,0.1,0,0.1,0c0-0.4,0-0.9,0.1-1.3c0.2-2.2,1-4.2,2.7-5.7c0.6-0.5,1.3-0.8,2-1.1c0.4-0.2,0.7,0,0.9,0.4c0.3,0.8,0.5,1.6,0.8,2.3
		c0.3,0.8,0.3,1.7,0.3,2.6c-0.2,1.6-0.7,3.1-1.9,4.2c-0.4,0.4-1,0.7-1.5,1c0.1,0.2,0.1,0.5,0.2,0.9c0.4,0,0.8,0,1.2,0.1
		c1.6,0.2,3.2,0.3,4.7,0.7c1.4,0.3,2.8,0.9,4.2,1.4c1.1,0.4,2.2,0.9,3.3,1.4c1,0.5,2,1.1,2.9,1.6c0.7,0.4,1.4,0.8,2.1,1.2
		c0.2,0.1,0.5,0.3,0.7,0.5c-0.5-0.2-1-0.3-1.4-0.5c0,0,0,0.1-0.1,0.1c0.4,0.3,0.6,0.9,1.2,1C110.7,23.3,116.2,26.3,106.3,21.9
		 M87.9,18.5C87.9,18.4,87.9,18.4,87.9,18.5c-0.1-0.1-0.1-0.2-0.2-0.2c-0.7,0-1.4,0-2.1,0.1c-1.1,0.1-2.1,0.2-3.2,0.2
		c-1.1,0.1-2.2,0.1-3.4,0.2c-1.2,0.1-2.3,0.3-3.5,0.5c-0.8,0.1-1.5,0.2-2.3,0.4c-1.3,0.3-2.6,0.6-3.8,1c-1.3,0.4-2.5,0.9-3.8,1.4
		c-0.2,0.1-0.4,0.3-0.6,0.4c0.2,0,0.4,0,0.6-0.1c0.9-0.3,1.9-0.7,2.8-0.9c1.7-0.4,3.3-0.9,5-1.2c1.3-0.3,2.6-0.5,3.8-0.6
		c0.9-0.1,1.8-0.2,2.7-0.3c1-0.1,1.9-0.3,2.9-0.4C84.6,18.8,86.2,18.6,87.9,18.5z M78.7,16.8c0,0,0-0.1,0-0.1c-0.1,0-0.2-0.1-0.3,0
		c-0.9,0.1-1.8,0.2-2.6,0.4c-1.3,0.3-2.5,0.7-3.7,1.1c-1.6,0.6-3.2,1.3-4.6,2.3c-0.2,0.2-0.5,0.4-0.7,0.6c0,0,0.1,0.1,0.1,0.1
		C70.5,19.1,74.5,17.6,78.7,16.8z M79.1,8.6c0,0.2,0,0.2,0,0.3c0.4,0.8,0.7,1.7,1.2,2.4c0.6,0.9,1.2,1.7,1.9,2.6
		c0.1,0.1,0.4,0.2,0.5,0.2c0.3,0,0.6-0.2,0.8-0.3c0.3-0.1,0.3-0.3,0-0.4c-1.3-0.8-2.2-2-3.2-3.2C79.9,9.7,79.5,9.2,79.1,8.6z
		 M91.8,14.2c1.8-0.2,3.4-3.6,2.9-5.3C94.3,11.1,93.1,12.6,91.8,14.2z M109.9,23.1c-0.3-0.3-0.7-0.5-1-0.8c-0.8-0.7-1.8-1.1-2.8-1.2
		c-0.1,0-0.2,0-0.4,0c0,0,0,0.1,0,0.1C106.3,21.5,109.8,23.4,109.9,23.1z M82.4,15.9c0,0,0.1,0,0.1,0c0.3-0.3,0.7-0.7,1-1
		c0,0-0.1-0.2-0.2-0.2c-0.4,0-1,0.5-1.2,0.9C82,15.8,82.1,15.9,82.4,15.9z"/>
	<g>
		<path class="st6" d="M86.4,26l-0.3-0.6c0.2-0.1,0.3-0.2,0.4-0.3c0.1-0.1,0.2-0.2,0.2-0.3c-0.3,0-0.5-0.1-0.7-0.3
			c-0.2-0.2-0.3-0.5-0.3-0.7c0-0.3,0.1-0.6,0.3-0.8c0.2-0.2,0.5-0.3,0.8-0.3c0.3,0,0.6,0.1,0.8,0.4c0.2,0.2,0.3,0.6,0.3,1
			c0,0.4-0.1,0.9-0.4,1.2C87.3,25.5,86.9,25.8,86.4,26 M84.3,26.4l-1.1,1.8c-0.4-0.5-0.8-0.9-1.2-1.2c-0.3-0.2-0.6-0.4-0.9-0.4
			c-0.1,0-0.3,0-0.4,0.1c-0.1,0.1-0.1,0.2-0.1,0.3c0,0.2,0.1,0.3,0.3,0.5c0.2,0.2,0.5,0.4,1,0.6c1.1,0.6,1.9,1,2.2,1.4
			c0.3,0.4,0.5,0.8,0.5,1.3c0,0.8-0.3,1.4-1,2c-0.7,0.5-1.5,0.8-2.4,0.8c-0.6,0-1.1-0.1-1.6-0.3c-0.5-0.2-1-0.5-1.5-0.8l1.3-2
			c0.6,0.6,1.1,1.1,1.5,1.4c0.4,0.3,0.8,0.5,1.1,0.5c0.2,0,0.3,0,0.4-0.1c0.1-0.1,0.1-0.2,0.1-0.4c0-0.3-0.5-0.7-1.4-1.1l0,0
			c-0.1,0-0.1-0.1-0.2-0.1c-1.4-0.8-2.1-1.6-2.1-2.5c0-0.8,0.3-1.4,0.8-1.9c0.5-0.5,1.3-0.7,2.1-0.7c0.5,0,0.9,0.1,1.3,0.2
			C83.5,25.9,83.9,26.1,84.3,26.4z M77.3,25.5l0.8,0.3l-0.9,2.6c-0.3-0.1-0.6-0.2-0.8-0.3c-0.2-0.1-0.4-0.1-0.5-0.1
			c-0.3,0-0.6,0.1-0.7,0.3c-0.2,0.2-0.3,0.5-0.3,0.9v3.3h0.8v1h-4.1v-1h0.5v-3.9c0-0.2,0-0.3-0.1-0.4c0-0.1-0.1-0.1-0.2-0.2
			l-0.3,0.2L71,27.6l1.7-2c0.5,0.2,0.9,0.5,1.1,0.7c0.3,0.3,0.5,0.5,0.6,0.9c0.4-0.7,0.8-1.1,1-1.3c0.2-0.2,0.4-0.3,0.7-0.3
			c0.1,0,0.3,0,0.5,0.1c0.2,0,0.4,0.1,0.6,0.2L77.3,25.5z M67.6,28.5c-0.2-0.5-0.4-1-0.6-1.2c-0.2-0.3-0.5-0.4-0.8-0.4
			c-0.2,0-0.4,0.1-0.6,0.3c-0.1,0.2-0.2,0.5-0.2,0.9c0,0.2,0,0.5,0.1,0.7c0,0.2,0.1,0.4,0.2,0.6L67.6,28.5z M69,29.2l-3,1.2
			c0.2,0.5,0.5,0.8,0.9,1c0.3,0.2,0.7,0.3,1.2,0.3c0.4,0,0.7-0.1,1-0.2c0.3-0.1,0.6-0.3,0.9-0.6l0.6,0.6c-0.5,0.7-1.1,1.2-1.8,1.6
			c-0.6,0.3-1.4,0.5-2.2,0.5c-1.1,0-2-0.4-2.6-1.1c-0.7-0.8-1-1.7-1-2.9c0-1.2,0.4-2.1,1.1-2.9c0.7-0.8,1.6-1.2,2.7-1.2
			c0.5,0,1,0.1,1.5,0.3c0.4,0.2,0.8,0.5,1.2,0.9c0.3,0.3,0.5,0.7,0.7,1.1c0.2,0.4,0.3,0.7,0.3,0.9c0,0.1-0.1,0.1-0.4,0.2
			C69.6,29,69.3,29.1,69,29.2z M59.8,23.8l0.8,0.2v1.9H62l-0.2,0.9c0,0.2,0,0.2-0.1,0.3c0,0-0.1,0-0.2,0h-1v4c0,0.4,0.1,0.7,0.2,0.8
			c0.1,0.2,0.3,0.2,0.5,0.2c0.1,0,0.2,0,0.3-0.1c0.1,0,0.2-0.1,0.3-0.2l0.4,0.6c-0.4,0.4-0.8,0.7-1.2,0.9c-0.4,0.2-0.9,0.3-1.3,0.3
			c-0.7,0-1.2-0.2-1.6-0.5c-0.3-0.3-0.5-0.9-0.5-1.7v-4.4h-0.7v-0.9c0.7-0.2,1.3-0.5,1.7-0.9C59.3,24.9,59.6,24.4,59.8,23.8z
			 M55.9,26.4l-1.1,1.8c-0.4-0.5-0.8-0.9-1.2-1.2c-0.3-0.2-0.6-0.4-0.9-0.4c-0.1,0-0.3,0-0.4,0.1c-0.1,0.1-0.1,0.2-0.1,0.3
			c0,0.2,0.1,0.3,0.3,0.5c0.2,0.2,0.5,0.4,1,0.6c1.1,0.6,1.9,1,2.2,1.4c0.3,0.4,0.5,0.8,0.5,1.3c0,0.8-0.3,1.4-1,2
			c-0.7,0.5-1.5,0.8-2.4,0.8c-0.6,0-1.1-0.1-1.6-0.3c-0.5-0.2-1-0.5-1.5-0.8l1.3-2c0.6,0.6,1.1,1.1,1.5,1.4s0.8,0.5,1.1,0.5
			c0.2,0,0.3,0,0.4-0.1c0.1-0.1,0.1-0.2,0.1-0.4c0-0.3-0.5-0.7-1.4-1.1l0,0c-0.1,0-0.1-0.1-0.2-0.1c-1.4-0.8-2.1-1.6-2.1-2.5
			c0-0.8,0.3-1.4,0.8-1.9c0.5-0.5,1.3-0.7,2.1-0.7c0.5,0,0.9,0.1,1.3,0.2C55.1,25.9,55.5,26.1,55.9,26.4z M47.1,23.1
			c0.4,0,0.7,0.1,0.9,0.3c0.2,0.2,0.3,0.4,0.3,0.7c0,0.4-0.2,0.7-0.6,0.9c-0.4,0.3-0.8,0.4-1.4,0.4c-0.3,0-0.6-0.1-0.8-0.2
			c-0.2-0.2-0.3-0.4-0.3-0.7c0-0.3,0.2-0.7,0.5-0.9C46.3,23.3,46.7,23.1,47.1,23.1z M48.2,25.6h0.1c0,0.3,0,0.6-0.1,0.8
			c0,0.2,0,0.4,0,0.5v5.6h0.5v1h-3.9v-1h0.5v-5.2l-0.5,0.1v-0.9L48.2,25.6z"/>
		<path class="st6" d="M138.6,25.6h0.1l-0.1,1.3c0.5-0.5,1-0.8,1.5-1c0.5-0.2,0.9-0.3,1.3-0.3c0.7,0,1.2,0.2,1.6,0.6
			c0.4,0.4,0.6,1,0.6,1.7v4.6h0.5v1h-3.8v-1h0.5v-4.1c0-0.3-0.1-0.6-0.2-0.7c-0.1-0.2-0.3-0.3-0.6-0.3c-0.2,0-0.4,0.1-0.7,0.2
			c-0.2,0.1-0.4,0.3-0.7,0.5v4.5h0.5v1h-3.8v-1h0.5v-5.2l-0.5,0.1v-0.9L138.6,25.6z M129.9,25.6c1.2,0,2.2,0.4,3,1.2
			c0.8,0.8,1.2,1.7,1.2,2.9c0,1.2-0.4,2.1-1.2,2.9c-0.8,0.8-1.8,1.2-3,1.2c-1.2,0-2.2-0.4-3-1.1c-0.8-0.8-1.2-1.7-1.2-2.9
			c0-1.2,0.4-2.1,1.2-2.9C127.7,25.9,128.7,25.6,129.9,25.6z M131.4,30.6c0-1-0.2-1.9-0.6-2.7c-0.4-0.8-0.8-1.2-1.3-1.2
			c-0.3,0-0.5,0.2-0.7,0.5c-0.2,0.3-0.3,0.8-0.3,1.3c0,1.1,0.2,2,0.6,2.8c0.4,0.8,0.8,1.2,1.3,1.2c0.3,0,0.6-0.2,0.7-0.5
			C131.3,31.7,131.4,31.2,131.4,30.6z M122.9,23.1c0.4,0,0.7,0.1,0.9,0.3c0.2,0.2,0.3,0.4,0.3,0.7c0,0.4-0.2,0.7-0.5,0.9
			c-0.4,0.3-0.8,0.4-1.3,0.4c-0.3,0-0.6-0.1-0.8-0.2c-0.2-0.2-0.3-0.4-0.3-0.7c0-0.4,0.2-0.7,0.5-0.9
			C122.1,23.3,122.4,23.1,122.9,23.1z M123.9,25.6h0.1c0,0.3,0,0.6-0.1,0.8c0,0.2,0,0.4,0,0.5v5.6h0.5v1h-3.8v-1h0.5v-5.2l-0.5,0.1
			v-0.9L123.9,25.6z M117.4,23.8l0.8,0.2v1.9h1.3l-0.2,0.9c0,0.2,0,0.2-0.1,0.3c0,0-0.1,0-0.1,0h-0.9v4c0,0.4,0.1,0.7,0.1,0.8
			c0.1,0.2,0.3,0.2,0.5,0.2c0.1,0,0.2,0,0.3-0.1c0.1,0,0.2-0.1,0.3-0.2l0.4,0.6c-0.4,0.4-0.8,0.7-1.2,0.9c-0.4,0.2-0.8,0.3-1.2,0.3
			c-0.7,0-1.2-0.2-1.5-0.5c-0.3-0.3-0.5-0.9-0.5-1.7v-4.4h-0.7v-0.9c0.7-0.2,1.2-0.5,1.7-0.9C116.9,24.9,117.2,24.4,117.4,23.8z
			 M107.7,25.2l0.8,0.3l-0.1,0.4c0.3-0.1,0.6-0.2,0.9-0.3c0.3-0.1,0.7-0.1,1-0.1c0.8,0,1.5,0.2,1.9,0.7c0.5,0.4,0.7,1.1,0.7,1.8v4.5
			h0.5v1h-3l-0.2-0.7c-0.3,0.3-0.7,0.6-1,0.7c-0.4,0.2-0.7,0.2-1,0.2c-0.7,0-1.3-0.2-1.8-0.7c-0.4-0.5-0.7-1-0.7-1.8
			c0-0.9,0.3-1.7,1-2.1c0.6-0.5,1.6-0.7,2.9-0.7c0.1,0,0.2,0,0.3,0c0.1,0,0.2,0,0.4,0l0-0.4c0-0.2-0.1-0.4-0.3-0.6
			c-0.2-0.1-0.4-0.2-0.7-0.2c-0.3,0-0.6,0.1-0.9,0.2c-0.3,0.2-0.5,0.4-0.8,0.7l-0.9-0.4L107.7,25.2z M110.2,29.4c-0.1,0-0.2,0-0.3,0
			c-0.1,0-0.1,0-0.1,0c-0.4,0-0.7,0.1-1,0.4c-0.2,0.3-0.4,0.6-0.4,1.1c0,0.4,0.1,0.7,0.2,0.9c0.1,0.2,0.4,0.3,0.6,0.3
			c0.3,0,0.5-0.1,0.6-0.3c0.2-0.2,0.2-0.4,0.2-0.7L110.2,29.4z M102.8,23.8l0.8,0.2v1.9h1.3l-0.2,0.9c0,0.2,0,0.2-0.1,0.3
			c0,0-0.1,0-0.1,0h-0.9v4c0,0.4,0.1,0.7,0.1,0.8c0.1,0.2,0.3,0.2,0.5,0.2c0.1,0,0.2,0,0.3-0.1c0.1,0,0.2-0.1,0.3-0.2l0.4,0.6
			c-0.4,0.4-0.8,0.7-1.2,0.9c-0.4,0.2-0.8,0.3-1.2,0.3c-0.7,0-1.2-0.2-1.5-0.5c-0.3-0.3-0.5-0.9-0.5-1.7v-4.4h-0.7v-0.9
			c0.7-0.2,1.2-0.5,1.7-0.9C102.3,24.9,102.6,24.4,102.8,23.8z"/>
		<path class="st7" d="M40.3,16.1l0.7,0.7h1.3l1.3-6.6c0,0,0.3-0.7-5.2-1.2C32.7,8.5,27.9,8.4,25,13c-1.2,3-0.7,6.2,2.3,8.4
			c3,2.2,7.8,2.6,8.9,5.1c1.1,2.5,0.6,4.7-1.7,5.3c-2.3,0.5-6.1-1.5-6.8-3.9c-0.8-2.4-1.8-3.2-2.5-1.9C25,27.4,24,32.2,24,32.2
			s3.5,1.8,11.6,1.4c8-0.4,9-6.8,8.1-10c-0.9-3.2-5.4-5.5-9.8-6.9c-2.9-1.3-3.1-4.7-1.1-5.8C34.8,9.9,39.2,11,40.3,16.1"/>
		<path class="st7" d="M97.9,24.9l0.3,0.4h0.6l0.6-3.3c0,0,0.2-0.4-2.6-0.6c-2.8-0.2-5.2-0.3-6.6,2c-0.6,1.5-0.4,3.1,1.2,4.2
			c1.5,1.1,3.9,1.3,4.4,2.5c0.5,1.3,0.3,2.4-0.8,2.6c-1.2,0.3-3-0.8-3.4-1.9c-0.4-1.2-0.9-1.6-1.3-1c-0.1,0.7-0.6,3.1-0.6,3.1
			s1.8,0.9,5.8,0.7c4-0.2,4.5-3.4,4-5c-0.5-1.6-2.7-2.7-4.9-3.4c-1.5-0.7-1.6-2.3-0.5-2.9C95.1,21.8,97.3,22.4,97.9,24.9"/>
	</g>
</g>
</svg>
